# xmcd CD database file
#
# Track frame offsets:
#	150
#	17400
#	34905
#	87780
#	107667
#	119442
#	137483
#	156308
#	179156
#
# Disc length: 2747 seconds
#
# Revision: 0
# Processed by: cddbd v1.5.2PL0 Copyright (c) Steve Scherf et al.
# Submitted via: CDex 1.70beta2
#
DISCID=710ab909
DTITLE=Dan Deacon - Spiderman of the Rings
DYEAR=2007
DGENRE=New Age
TTITLE0=Wooody Wooodypecker
TTITLE1=The Crystal Cat
TTITLE2=Wham City
TTITLE3=Big Milk
TTITLE4=Okie Dokie
TTITLE5=Trippy Green Skull
TTITLE6=Snake Mistakes
TTITLE7=Pink Batman
TTITLE8=Jimmy Joe Roche
EXTD=YEAR: 2007
EXTT0=
EXTT1=
EXTT2=
EXTT3=
EXTT4=
EXTT5=
EXTT6=
EXTT7=
EXTT8=
PLAYORDER=
